<svg width="40" height="38" viewBox="0 0 40 38" fill="none" xmlns="http://www.w3.org/2000/svg">
<path fill-rule="evenodd" clip-rule="evenodd" d="M30.1663 16.6203C30.0606 16.8277 30.0606 17.0993 30.0606 17.6423V29.0848C30.0606 29.6278 30.0606 29.8994 30.1663 30.1068C30.2592 30.2893 30.4075 30.4376 30.5901 30.5306C30.7976 30.6363 31.0691 30.6363 31.6121 30.6363H37.2364C37.7794 30.6363 38.0509 30.6363 38.2584 30.5306C38.441 30.4376 38.5893 30.2893 38.6822 30.1068C38.7879 29.8994 38.7879 29.6278 38.7879 29.0848V26.9986C39.1152 26.9941 39.3118 26.9752 39.4705 26.8942C39.6531 26.8012 39.8015 26.6529 39.8943 26.4705C40 26.263 40 25.9915 40 25.4484V21.2787C40 20.7356 40 20.4641 39.8943 20.2566C39.8015 20.0742 39.6531 19.9259 39.4705 19.8329C39.3118 19.7519 39.1152 19.733 38.7879 19.7285V17.6423C38.7879 17.0993 38.7879 16.8277 38.6822 16.6203C38.5893 16.4378 38.441 16.2895 38.2584 16.1965C38.0509 16.0908 37.7794 16.0908 37.2364 16.0908H31.6121C31.0691 16.0908 30.7976 16.0908 30.5901 16.1965C30.4075 16.2895 30.2592 16.4378 30.1663 16.6203ZM2.52994 18.3172C2.42424 18.5247 2.42424 18.7962 2.42424 19.3393V21.6666H1.55152C1.00844 21.6666 0.736897 21.6666 0.529455 21.7723C0.347006 21.8652 0.198667 22.0136 0.105697 22.196C-2.88992e-08 22.4035 0 22.675 0 23.2181V27.3878C0 27.9309 -2.88992e-08 28.2024 0.105697 28.4099C0.198667 28.5923 0.347006 28.7406 0.529455 28.8336C0.736897 28.9393 1.00844 28.9393 1.55152 28.9393H7.17576C7.71884 28.9393 7.99038 28.9393 8.19782 28.8336C8.38027 28.7406 8.52861 28.5923 8.62158 28.4099C8.72727 28.2024 8.72727 27.9309 8.72727 27.3878V23.509V23.2181V19.3393C8.72727 18.7962 8.72727 18.5247 8.62158 18.3172C8.52861 18.1348 8.38027 17.9865 8.19782 17.8935C7.99038 17.7878 7.71884 17.7878 7.17576 17.7878H3.97576C3.43268 17.7878 3.16114 17.7878 2.9537 17.8935C2.77125 17.9865 2.62291 18.1348 2.52994 18.3172Z" fill="#0076DE"/>
<mask id="mask0_2404_14300" style="mask-type:alpha" maskUnits="userSpaceOnUse" x="0" y="16" width="40" height="15">
<path fill-rule="evenodd" clip-rule="evenodd" d="M30.1663 16.6203C30.0606 16.8277 30.0606 17.0993 30.0606 17.6423V29.0848C30.0606 29.6278 30.0606 29.8994 30.1663 30.1068C30.2592 30.2893 30.4075 30.4376 30.5901 30.5306C30.7976 30.6363 31.0691 30.6363 31.6121 30.6363H37.2364C37.7794 30.6363 38.0509 30.6363 38.2584 30.5306C38.441 30.4376 38.5893 30.2893 38.6822 30.1068C38.7879 29.8994 38.7879 29.6278 38.7879 29.0848V26.9986C39.1152 26.9941 39.3118 26.9752 39.4705 26.8942C39.6531 26.8012 39.8015 26.6529 39.8943 26.4705C40 26.263 40 25.9915 40 25.4484V21.2787C40 20.7356 40 20.4641 39.8943 20.2566C39.8015 20.0742 39.6531 19.9259 39.4705 19.8329C39.3118 19.7519 39.1152 19.733 38.7879 19.7285V17.6423C38.7879 17.0993 38.7879 16.8277 38.6822 16.6203C38.5893 16.4378 38.441 16.2895 38.2584 16.1965C38.0509 16.0908 37.7794 16.0908 37.2364 16.0908H31.6121C31.0691 16.0908 30.7976 16.0908 30.5901 16.1965C30.4075 16.2895 30.2592 16.4378 30.1663 16.6203ZM2.52994 18.3172C2.42424 18.5247 2.42424 18.7962 2.42424 19.3393V21.6666H1.55152C1.00844 21.6666 0.736897 21.6666 0.529455 21.7723C0.347006 21.8652 0.198667 22.0136 0.105697 22.196C-2.88992e-08 22.4035 0 22.675 0 23.2181V27.3878C0 27.9309 -2.88992e-08 28.2024 0.105697 28.4099C0.198667 28.5923 0.347006 28.7406 0.529455 28.8336C0.736897 28.9393 1.00844 28.9393 1.55152 28.9393H7.17576C7.71884 28.9393 7.99038 28.9393 8.19782 28.8336C8.38027 28.7406 8.52861 28.5923 8.62158 28.4099C8.72727 28.2024 8.72727 27.9309 8.72727 27.3878V23.509V23.2181V19.3393C8.72727 18.7962 8.72727 18.5247 8.62158 18.3172C8.52861 18.1348 8.38027 17.9865 8.19782 17.8935C7.99038 17.7878 7.71884 17.7878 7.17576 17.7878H3.97576C3.43268 17.7878 3.16114 17.7878 2.9537 17.8935C2.77125 17.9865 2.62291 18.1348 2.52994 18.3172Z" fill="white"/>
</mask>
<g mask="url(#mask0_2404_14300)">
<path d="M41.2125 14.1514H-2.42383V32.5756H41.2125V14.1514Z" fill="#4C4C4C"/>
<path d="M41.2125 25.5454H-2.42383V32.5757H41.2125V25.5454Z" fill="black" fill-opacity="0.1"/>
<path fill-rule="evenodd" clip-rule="evenodd" d="M36.6067 20.2121C37.276 20.2121 37.8188 19.6694 37.8188 19C37.8188 18.3305 37.276 17.7878 36.6067 17.7878C35.9373 17.7878 35.3945 18.3305 35.3945 19C35.3945 19.6694 35.9373 20.2121 36.6067 20.2121Z" fill="white" fill-opacity="0.6"/>
<path fill-rule="evenodd" clip-rule="evenodd" d="M36.6067 24.0907C37.276 24.0907 37.8188 23.5481 37.8188 22.8786C37.8188 22.2092 37.276 21.6665 36.6067 21.6665C35.9373 21.6665 35.3945 22.2092 35.3945 22.8786C35.3945 23.5481 35.9373 24.0907 36.6067 24.0907Z" fill="white" fill-opacity="0.6"/>
</g>
<path fill-rule="evenodd" clip-rule="evenodd" d="M19.6365 0.0908203L27.3941 10.7575H11.8789L19.6365 0.0908203Z" fill="#E1E6E8"/>
<mask id="mask1_2404_14300" style="mask-type:alpha" maskUnits="userSpaceOnUse" x="11" y="0" width="17" height="11">
<path fill-rule="evenodd" clip-rule="evenodd" d="M19.6365 0.0908203L27.3941 10.7575H11.8789L19.6365 0.0908203Z" fill="white"/>
</mask>
<g mask="url(#mask1_2404_14300)">
<path d="M31.758 -1.84863H7.51562V10.7574H31.758V-1.84863Z" fill="#4C4C4C"/>
<path d="M26.9094 -0.878906H19.6367V10.7575H26.9094V-0.878906Z" fill="white" fill-opacity="0.8"/>
</g>
<path fill-rule="evenodd" clip-rule="evenodd" d="M3.63672 13.1818C3.63672 10.7718 5.59039 8.81812 8.00035 8.81812H30.7882C33.1982 8.81812 35.1519 10.7718 35.1519 13.1818V19.7632C35.1519 20.8625 34.965 21.9538 34.5991 22.9905L30.3613 34.9977C29.7456 36.7422 28.0964 37.909 26.2463 37.909H12.5422C10.6921 37.909 9.04312 36.7422 8.42736 34.9977L4.18954 22.9905C3.82366 21.9538 3.63672 20.8625 3.63672 19.7632V13.1818Z" fill="#0076DE"/>
<mask id="mask2_2404_14300" style="mask-type:alpha" maskUnits="userSpaceOnUse" x="3" y="8" width="33" height="30">
<path fill-rule="evenodd" clip-rule="evenodd" d="M3.63672 13.1818C3.63672 10.7718 5.59039 8.81812 8.00035 8.81812H30.7882C33.1982 8.81812 35.1519 10.7718 35.1519 13.1818V19.7632C35.1519 20.8625 34.965 21.9538 34.5991 22.9905L30.3613 34.9977C29.7456 36.7422 28.0964 37.909 26.2463 37.909H12.5422C10.6921 37.909 9.04312 36.7422 8.42736 34.9977L4.18954 22.9905C3.82366 21.9538 3.63672 20.8625 3.63672 19.7632V13.1818Z" fill="white"/>
</mask>
<g mask="url(#mask2_2404_14300)">
<path d="M35.6372 8.33325H3.15234V38.3939H35.6372V8.33325Z" fill="#FF8A00"/>
</g>
<path d="M21.5758 29.6665H16.9697C16.4341 29.6665 16 30.1007 16 30.6362C16 31.1717 16.4341 31.6059 16.9697 31.6059H21.5758C22.1113 31.6059 22.5455 31.1717 22.5455 30.6362C22.5455 30.1007 22.1113 29.6665 21.5758 29.6665Z" fill="black" fill-opacity="0.8"/>
<path fill-rule="evenodd" clip-rule="evenodd" d="M11.8786 27.4846C13.8869 27.4846 15.5149 25.8566 15.5149 23.8483C15.5149 21.84 13.8869 20.2119 11.8786 20.2119C9.87024 20.2119 8.24219 21.84 8.24219 23.8483C8.24219 25.8566 9.87024 27.4846 11.8786 27.4846Z" fill="white" fill-opacity="0.1"/>
<path fill-rule="evenodd" clip-rule="evenodd" d="M26.9088 27.4846C28.9171 27.4846 30.5452 25.8566 30.5452 23.8483C30.5452 21.84 28.9171 20.2119 26.9088 20.2119C24.9005 20.2119 23.2725 21.84 23.2725 23.8483C23.2725 25.8566 24.9005 27.4846 26.9088 27.4846Z" fill="white" fill-opacity="0.1"/>
<path fill-rule="evenodd" clip-rule="evenodd" d="M11.8788 26.7574C13.4855 26.7574 14.7879 25.4549 14.7879 23.8483C14.7879 22.2417 13.4855 20.9392 11.8788 20.9392C10.2722 20.9392 8.96973 22.2417 8.96973 23.8483C8.96973 25.4549 10.2722 26.7574 11.8788 26.7574Z" fill="white" fill-opacity="0.1"/>
<path fill-rule="evenodd" clip-rule="evenodd" d="M26.9081 26.7574C28.5148 26.7574 29.8172 25.4549 29.8172 23.8483C29.8172 22.2417 28.5148 20.9392 26.9081 20.9392C25.3015 20.9392 23.999 22.2417 23.999 23.8483C23.999 25.4549 25.3015 26.7574 26.9081 26.7574Z" fill="white" fill-opacity="0.1"/>
<path fill-rule="evenodd" clip-rule="evenodd" d="M11.8784 25.3029C12.6817 25.3029 13.3329 24.6517 13.3329 23.8483C13.3329 23.045 12.6817 22.3938 11.8784 22.3938C11.0751 22.3938 10.4238 23.045 10.4238 23.8483C10.4238 24.6517 11.0751 25.3029 11.8784 25.3029Z" fill="white" fill-opacity="0.8"/>
<path fill-rule="evenodd" clip-rule="evenodd" d="M26.9086 25.3029C27.712 25.3029 28.3632 24.6517 28.3632 23.8483C28.3632 23.045 27.712 22.3938 26.9086 22.3938C26.1053 22.3938 25.4541 23.045 25.4541 23.8483C25.4541 24.6517 26.1053 25.3029 26.9086 25.3029Z" fill="white" fill-opacity="0.8"/>
<path fill-rule="evenodd" clip-rule="evenodd" d="M11.8786 24.5754C12.2803 24.5754 12.6059 24.2498 12.6059 23.8481C12.6059 23.4464 12.2803 23.1208 11.8786 23.1208C11.477 23.1208 11.1514 23.4464 11.1514 23.8481C11.1514 24.2498 11.477 24.5754 11.8786 24.5754Z" fill="white" fill-opacity="0.8"/>
<path fill-rule="evenodd" clip-rule="evenodd" d="M26.9089 24.5754C27.3106 24.5754 27.6362 24.2498 27.6362 23.8481C27.6362 23.4464 27.3106 23.1208 26.9089 23.1208C26.5072 23.1208 26.1816 23.4464 26.1816 23.8481C26.1816 24.2498 26.5072 24.5754 26.9089 24.5754Z" fill="white" fill-opacity="0.8"/>
</svg>
