<svg width="113" height="78" viewBox="0 0 113 78" fill="none" xmlns="http://www.w3.org/2000/svg">
<path d="M30.4639 0.00887208C33.23 0.000297848 35.9961 0.000297848 38.7657 0.00887208C38.755 4.34172 38.7622 8.67457 38.7586 13.0074C40.1774 13.0103 41.5926 13.0074 43.0114 13.0074C43.015 14.8623 43.0078 16.7201 43.0149 18.5778C41.5962 18.5807 40.1774 18.5807 38.7622 18.5807C38.7586 22.7706 38.755 26.9605 38.7622 31.1533C35.9961 31.1591 33.23 31.1591 30.4639 31.1505C30.471 20.77 30.471 10.3894 30.4639 0.00887208Z" fill="white"/>
<path d="M74.2319 0.00286087C76.9944 2.79115e-06 79.7569 0 82.523 0C82.523 10.3863 82.523 20.7696 82.5194 31.1559C79.7569 31.1559 76.9944 31.1559 74.2319 31.1559C74.2319 26.9631 74.2319 22.7732 74.2319 18.5804C73.6672 18.5804 73.1097 18.5804 72.5522 18.5804C71.0834 16.7255 69.6074 14.8734 68.1636 13.0071C70.1828 13.0071 72.2091 13.0071 74.2319 13.0043C74.2283 8.67141 74.2283 4.33571 74.2319 0.00286087Z" fill="white"/>
<path d="M23.409 3.79264C25.203 3.78692 26.9971 3.78978 28.7911 3.78978C28.7911 11.6495 28.7911 19.5092 28.7911 27.3661C26.9971 27.3689 25.2066 27.3661 23.4161 27.3689C23.409 24.4394 23.409 21.5099 23.4126 18.5803C21.2576 18.5775 19.1062 18.5832 16.9512 18.5775C16.9547 16.7226 16.9476 14.8648 16.9547 13.0099C19.1026 13.0071 21.2576 13.0071 23.409 13.0099C23.4161 9.9375 23.409 6.86507 23.409 3.79264Z" fill="white"/>
<path d="M84.1919 3.78662C85.9859 3.78948 87.7835 3.78662 89.5776 3.78662C89.5847 6.85905 89.5776 9.93149 89.5812 13.0039C91.7326 13.0068 93.8875 13.0039 96.0425 13.0068C96.0389 14.8645 96.0425 16.7223 96.0389 18.5829C93.8875 18.58 91.7326 18.58 89.5812 18.5829C89.5776 21.5124 89.5847 24.4391 89.5776 27.3715C87.7835 27.3686 85.9895 27.3686 84.1955 27.3715C84.1955 19.5089 84.199 11.6463 84.1919 3.78662Z" fill="white"/>
<path d="M51.5669 8.67105C52.9678 7.90223 55.1013 8.71107 55.2372 10.0687C55.3479 12.4351 55.2765 14.8102 55.2765 17.1795C55.3301 18.2227 54.1543 19.2088 52.8392 19.1631C51.5097 19.2145 50.3518 18.2056 50.4304 17.1595C50.4018 14.9531 50.4269 12.7467 50.4197 10.5431C50.3482 9.80857 50.7521 9.04831 51.5669 8.67105Z" fill="white"/>
<path d="M57.6279 9.55146C59.0288 8.80265 61.1266 9.65149 61.2195 10.9948C61.3267 13.0326 61.2588 15.079 61.2553 17.1197C61.3232 18.4287 59.5184 19.529 57.9888 18.9803C56.8595 18.7373 56.3842 17.7399 56.4056 16.8881C56.3913 15.1647 56.4128 13.4384 56.3985 11.7122C56.3699 10.9148 56.6415 9.92873 57.6279 9.55146Z" fill="white"/>
<path d="M45.8311 11.2809C47.1641 10.6807 48.9903 11.4496 49.2262 12.6414C49.4084 14.039 49.2655 15.4537 49.3048 16.857C49.3691 17.7373 48.8152 18.7434 47.6716 18.992C46.2528 19.4893 44.4981 18.5147 44.4731 17.2915C44.3909 15.9996 44.4588 14.7078 44.4373 13.4159C44.4195 12.5956 44.7625 11.5839 45.8311 11.2809Z" fill="white"/>
<path d="M62.3167 15.1222C61.5269 13.4931 64.1894 11.8526 65.9441 12.9187C67.0842 13.8504 67.7739 15.0708 68.7209 16.1283C69.45 17.1429 70.4649 18.0432 71.001 19.1407C70.708 20.8698 69.6644 22.4503 68.9354 24.0823C68.5566 24.774 68.41 25.5999 67.6595 26.1144C65.7083 27.5149 63.7498 28.901 61.7985 30.2986C62.9636 37.2523 64.1322 44.206 65.2973 51.1626C59.4434 51.1569 53.5896 51.1626 47.7322 51.1597C47.7286 44.1346 47.7357 37.1123 47.7286 30.09C45.8131 29.344 44.6123 27.7664 44.4729 26.0858C44.3085 24.088 44.4514 22.0845 44.4014 20.0867C47.8608 20.0724 51.3238 20.0896 54.7868 20.0753C52.8641 21.7187 51.1987 23.6565 50.5912 25.8858C50.2588 27.1233 50.316 28.4009 50.4983 29.6498C50.9271 29.6527 51.3596 29.6556 51.7956 29.6613C51.1416 27.1405 52.2244 24.4796 54.1292 22.4675C57.0026 20.1439 61.116 19.195 65.0185 18.5919C64.1465 17.4201 63.0565 16.3484 62.3167 15.1222Z" fill="white"/>
<path d="M2.28 76.918V62.918H3.5L9.9 73.838H9.26L15.6 62.918H16.82V76.918H15.4V65.138H15.74L9.9 75.138H9.2L3.32 65.138H3.7V76.918H2.28ZM19.1416 76.918L25.5416 62.918H27.0016L33.4016 76.918H31.8416L25.9616 63.778H26.5616L20.6816 76.918H19.1416ZM21.6616 73.178L22.1016 71.978H30.2416L30.6816 73.178H21.6616ZM35.7175 76.918V62.918H36.9375L46.5975 75.078H45.9575V62.918H47.4175V76.918H46.1975L36.5575 64.758H37.1975V76.918H35.7175ZM49.747 76.918L56.147 62.918H57.607L64.007 76.918H62.447L56.567 63.778H57.167L51.287 76.918H49.747ZM52.267 73.178L52.707 71.978H60.847L61.287 73.178H52.267ZM72.2677 77.038C71.201 77.038 70.2143 76.8646 69.3077 76.518C68.4143 76.158 67.6343 75.658 66.9677 75.018C66.3143 74.378 65.801 73.6246 65.4277 72.758C65.0677 71.8913 64.8877 70.9446 64.8877 69.918C64.8877 68.8913 65.0677 67.9446 65.4277 67.078C65.801 66.2113 66.321 65.458 66.9877 64.818C67.6543 64.178 68.4343 63.6846 69.3277 63.338C70.2343 62.978 71.221 62.798 72.2877 62.798C73.3543 62.798 74.3277 62.9646 75.2077 63.298C76.101 63.6313 76.861 64.138 77.4877 64.818L76.5677 65.758C75.981 65.1713 75.3343 64.7513 74.6277 64.498C73.921 64.2446 73.161 64.118 72.3477 64.118C71.481 64.118 70.681 64.2646 69.9477 64.558C69.2277 64.838 68.5943 65.2446 68.0477 65.778C67.5143 66.298 67.0943 66.9113 66.7877 67.618C66.4943 68.3113 66.3477 69.078 66.3477 69.918C66.3477 70.7446 66.4943 71.5113 66.7877 72.218C67.0943 72.9246 67.5143 73.5446 68.0477 74.078C68.5943 74.598 69.2277 75.0046 69.9477 75.298C70.681 75.578 71.4743 75.718 72.3277 75.718C73.1277 75.718 73.881 75.598 74.5877 75.358C75.3077 75.118 75.9677 74.7113 76.5677 74.138L77.4077 75.258C76.741 75.8446 75.961 76.2913 75.0677 76.598C74.1743 76.8913 73.241 77.038 72.2677 77.038ZM75.9877 75.078V69.918H77.4077V75.258L75.9877 75.078ZM84.9364 76.918V71.718L85.2764 72.638L79.3364 62.918H80.9164L86.1364 71.458H85.2964L90.5164 62.918H91.9964L86.0564 72.638L86.3964 71.718V76.918H84.9364ZM93.9988 76.918V62.918H95.2188L101.619 73.838H100.979L107.319 62.918H108.539V76.918H107.119V65.138H107.459L101.619 75.138H100.919L95.0388 65.138H95.4188V76.918H93.9988Z" fill="white"/>
</svg>
