<svg width="40" height="32" viewBox="0 0 40 32" fill="none" xmlns="http://www.w3.org/2000/svg">
<path d="M6.75928 0.00548697C8.14289 0.000124136 9.5265 0.000124136 10.9119 0.00548697C10.9065 2.7155 10.9101 5.42552 10.9083 8.13554C11.618 8.13733 12.3259 8.13554 13.0356 8.13554C13.0374 9.2957 13.0338 10.4576 13.0374 11.6196C12.3277 11.6214 11.618 11.6214 10.9101 11.6214C10.9083 14.242 10.9065 16.8626 10.9101 19.4851C9.5265 19.4886 8.14289 19.4886 6.75928 19.4833C6.76285 12.9907 6.76285 6.49809 6.75928 0.00548697Z" fill="white"/>
<path d="M28.6521 0.00178936C30.0339 1.74575e-06 31.4157 0 32.7993 0C32.7993 6.49617 32.7993 12.9906 32.7975 19.4867C31.4157 19.4867 30.0339 19.4867 28.6521 19.4867C28.6521 16.8643 28.6521 14.2437 28.6521 11.6213C28.3696 11.6213 28.0908 11.6213 27.8119 11.6213C27.0772 10.4611 26.3389 9.30272 25.6167 8.13541C26.6267 8.13541 27.6403 8.13541 28.6521 8.13362C28.6503 5.42361 28.6503 2.71181 28.6521 0.00178936Z" fill="white"/>
<path d="M3.23021 2.37235C4.12759 2.36878 5.02497 2.37056 5.92235 2.37056C5.92235 7.28649 5.92235 12.2024 5.92235 17.1166C5.02497 17.1183 4.12938 17.1166 3.23379 17.1183C3.23022 15.286 3.23021 13.4537 3.232 11.6214C2.15407 11.6197 1.07793 11.6232 0 11.6197C0.00178761 10.4595 -0.00178586 9.29755 0.00178936 8.13739C1.07614 8.13561 2.15407 8.13561 3.23021 8.13739C3.23379 6.21571 3.23021 4.29403 3.23021 2.37235Z" fill="white"/>
<path d="M33.6338 2.36865C34.5312 2.37044 35.4303 2.36865 36.3277 2.36865C36.3313 4.29033 36.3277 6.21201 36.3295 8.13369C37.4056 8.13548 38.4836 8.1337 39.5615 8.13548C39.5597 9.29743 39.5615 10.4594 39.5597 11.6231C38.4836 11.6213 37.4056 11.6213 36.3295 11.6231C36.3277 13.4554 36.3313 15.2859 36.3277 17.12C35.4303 17.1182 34.533 17.1182 33.6356 17.12C33.6356 12.2023 33.6374 7.28458 33.6338 2.36865Z" fill="white"/>
<path d="M17.3147 5.42369C18.0154 4.94283 19.0826 5.44872 19.1506 6.29784C19.206 7.77798 19.1702 9.26348 19.1702 10.7454C19.197 11.3979 18.6089 12.0146 17.9511 11.986C17.2861 12.0182 16.7069 11.3872 16.7462 10.7329C16.7319 9.35286 16.7444 7.97283 16.7409 6.59458C16.7051 6.13516 16.9071 5.65966 17.3147 5.42369Z" fill="white"/>
<path d="M20.3469 5.97413C21.0476 5.50577 22.097 6.03669 22.1434 6.87687C22.1971 8.15143 22.1631 9.43137 22.1613 10.7077C22.1953 11.5264 21.2925 12.2147 20.5274 11.8714C19.9626 11.7195 19.7248 11.0956 19.7355 10.5629C19.7284 9.48499 19.7391 8.40528 19.732 7.32556C19.7177 6.82682 19.8535 6.21009 20.3469 5.97413Z" fill="white"/>
<path d="M14.4459 7.0558C15.1126 6.6804 16.0261 7.16127 16.1441 7.9067C16.2353 8.78084 16.1638 9.66571 16.1834 10.5434C16.2156 11.094 15.9385 11.7232 15.3665 11.8788C14.6568 12.1898 13.7791 11.5802 13.7666 10.8151C13.7255 10.0071 13.7594 9.19914 13.7487 8.39114C13.7398 7.8781 13.9114 7.24529 14.4459 7.0558Z" fill="white"/>
<path d="M22.692 9.4583C22.297 8.43937 23.6287 7.41328 24.5065 8.08006C25.0767 8.66282 25.4217 9.42613 25.8954 10.0875C26.2601 10.7221 26.7678 11.2852 27.0359 11.9717C26.8893 13.0532 26.3674 14.0417 26.0027 15.0625C25.8132 15.4951 25.7399 16.0117 25.3645 16.3334C24.3885 17.2094 23.4089 18.0764 22.4328 18.9505C23.0156 23.2998 23.6001 27.649 24.1829 32.0001C21.2548 31.9965 18.3267 32.0001 15.3968 31.9983C15.395 27.6043 15.3986 23.2122 15.395 18.82C14.4368 18.3534 13.8362 17.3667 13.7665 16.3156C13.6843 15.066 13.7558 13.8129 13.7307 12.5634C15.4611 12.5544 17.1933 12.5652 18.9255 12.5562C17.9638 13.5841 17.1308 14.7961 16.8269 16.1904C16.6606 16.9645 16.6892 17.7635 16.7804 18.5447C16.9949 18.5465 17.2112 18.5483 17.4293 18.5519C17.1022 16.9752 17.6438 15.3109 18.5966 14.0525C20.0339 12.5991 22.0914 12.0056 24.0435 11.6285C23.6073 10.8955 23.0621 10.2252 22.692 9.4583Z" fill="white"/>
</svg>
