<svg width="34" height="32" viewBox="0 0 34 32" fill="none" xmlns="http://www.w3.org/2000/svg">
<path d="M25.5 15.25V16.75C25.5 16.8163 25.4737 16.8799 25.4268 16.9268C25.3799 16.9737 25.3163 17 25.25 17H8.75C8.68369 17 8.62011 16.9737 8.57322 16.9268C8.52634 16.8799 8.5 16.8163 8.5 16.75V15.25C8.5 15.1837 8.52634 15.1201 8.57322 15.0732C8.62011 15.0263 8.6837 15 8.75 15H25.25C25.3163 15 25.3799 15.0263 25.4268 15.0732C25.4737 15.1201 25.5 15.1837 25.5 15.25ZM8.75 21H25.25C25.3163 21 25.3799 21.0263 25.4268 21.0732C25.4737 21.1201 25.5 21.1837 25.5 21.25V22.75C25.5 22.8163 25.4737 22.8799 25.4268 22.9268C25.3799 22.9737 25.3163 23 25.25 23H8.75C8.68369 23 8.62011 22.9737 8.57322 22.9268C8.52634 22.8799 8.5 22.8163 8.5 22.75V21.25C8.5 21.1837 8.52634 21.1201 8.57322 21.0732C8.62011 21.0263 8.68369 21 8.75 21ZM8.75 9H25.25C25.3163 9 25.3799 9.02634 25.4268 9.07322C25.4737 9.12011 25.5 9.1837 25.5 9.25V10.75C25.5 10.8163 25.4737 10.8799 25.4268 10.9268C25.3799 10.9737 25.3163 11 25.25 11H8.75C8.6837 11 8.62011 10.9737 8.57322 10.9268C8.52634 10.8799 8.5 10.8163 8.5 10.75V9.25C8.5 9.1837 8.52634 9.12011 8.57322 9.07322C8.62011 9.02634 8.6837 9 8.75 9Z" fill="#FF8A00" stroke="black"/>
<rect x="0.75" y="0.75" width="32.5" height="30.5" stroke="#FF8A00" stroke-width="1.5"/>
</svg>
