<svg width="40" height="44" viewBox="0 0 40 44" fill="none" xmlns="http://www.w3.org/2000/svg">
<path fill-rule="evenodd" clip-rule="evenodd" d="M0.258132 23.5822C-4.70563e-08 24.0889 0 24.7521 0 26.0785V30.0785C0 31.405 -4.70563e-08 32.0682 0.258132 32.5748C0.485211 33.0205 0.847526 33.3828 1.29318 33.6099C1.79982 33.868 2.46303 33.868 3.78947 33.868H5.68421C7.01066 33.868 7.67387 33.868 8.1805 33.6099C8.62616 33.3828 8.98847 33.0205 9.21555 32.5748C9.47368 32.0682 9.47368 31.405 9.47368 30.0785V26.0785C9.47368 24.7521 9.47368 24.0889 9.21555 23.5822C8.98847 23.1366 8.62616 22.7743 8.1805 22.5472C7.67387 22.2891 7.01066 22.2891 5.68421 22.2891H3.78947C2.46303 22.2891 1.79982 22.2891 1.29318 22.5472C0.847526 22.7743 0.485211 23.1366 0.258132 23.5822ZM30.7845 23.5822C30.5263 24.0889 30.5263 24.7521 30.5263 26.0785V30.0785C30.5263 31.405 30.5263 32.0682 30.7845 32.5748C31.0116 33.0205 31.3739 33.3828 31.8195 33.6099C32.3261 33.868 32.9895 33.868 34.3158 33.868H36.2105C37.5368 33.868 38.2003 33.868 38.7068 33.6099C39.1524 33.3828 39.5147 33.0205 39.7418 32.5748C40 32.0682 40 31.405 40 30.0785V26.0785C40 24.7521 40 24.0889 39.7418 23.5822C39.5147 23.1366 39.1524 22.7743 38.7068 22.5472C38.2003 22.2891 37.5368 22.2891 36.2105 22.2891H34.3158C32.9895 22.2891 32.3261 22.2891 31.8195 22.5472C31.3739 22.7743 31.0116 23.1366 30.7845 23.5822Z" fill="#0076DE"/>
<mask id="mask0_2404_14168" style="mask-type:alpha" maskUnits="userSpaceOnUse" x="0" y="22" width="40" height="12">
<path fill-rule="evenodd" clip-rule="evenodd" d="M0.258132 23.5822C-4.70563e-08 24.0889 0 24.7521 0 26.0785V30.0785C0 31.405 -4.70563e-08 32.0682 0.258132 32.5748C0.485211 33.0205 0.847526 33.3828 1.29318 33.6099C1.79982 33.868 2.46303 33.868 3.78947 33.868H5.68421C7.01066 33.868 7.67387 33.868 8.1805 33.6099C8.62616 33.3828 8.98847 33.0205 9.21555 32.5748C9.47368 32.0682 9.47368 31.405 9.47368 30.0785V26.0785C9.47368 24.7521 9.47368 24.0889 9.21555 23.5822C8.98847 23.1366 8.62616 22.7743 8.1805 22.5472C7.67387 22.2891 7.01066 22.2891 5.68421 22.2891H3.78947C2.46303 22.2891 1.79982 22.2891 1.29318 22.5472C0.847526 22.7743 0.485211 23.1366 0.258132 23.5822ZM30.7845 23.5822C30.5263 24.0889 30.5263 24.7521 30.5263 26.0785V30.0785C30.5263 31.405 30.5263 32.0682 30.7845 32.5748C31.0116 33.0205 31.3739 33.3828 31.8195 33.6099C32.3261 33.868 32.9895 33.868 34.3158 33.868H36.2105C37.5368 33.868 38.2003 33.868 38.7068 33.6099C39.1524 33.3828 39.5147 33.0205 39.7418 32.5748C40 32.0682 40 31.405 40 30.0785V26.0785C40 24.7521 40 24.0889 39.7418 23.5822C39.5147 23.1366 39.1524 22.7743 38.7068 22.5472C38.2003 22.2891 37.5368 22.2891 36.2105 22.2891H34.3158C32.9895 22.2891 32.3261 22.2891 31.8195 22.5472C31.3739 22.7743 31.0116 23.1366 30.7845 23.5822Z" fill="white"/>
</mask>
<g mask="url(#mask0_2404_14168)">
<path d="M43.6843 18.0786H-3.68408V38.0786H43.6843V18.0786Z" fill="#FF8A00"/>
<path d="M43.6843 28.0786H-3.68408V38.0786H43.6843V28.0786Z" fill="black" fill-opacity="0.1"/>
</g>
<g filter="url(#filter0_di_2404_14168)">
<path fill-rule="evenodd" clip-rule="evenodd" d="M15 9.39451C15 6.48774 17.3564 4.13135 20.2632 4.13135C23.1699 4.13135 25.5263 6.48774 25.5263 9.39451V12.2892H15V9.39451Z" fill="white" fill-opacity="0.3"/>
</g>
<path fill-rule="evenodd" clip-rule="evenodd" d="M20.2636 10.1838C20.8449 10.1838 21.3162 9.92798 21.3162 9.05596C21.3162 8.18393 20.8449 7.02588 20.2636 7.02588C19.6822 7.02588 19.2109 8.18393 19.2109 9.05596C19.2109 9.92798 19.6822 10.1838 20.2636 10.1838Z" fill="white" fill-opacity="0.6"/>
<path d="M20.2632 4.52588C20.1178 4.52588 20 4.64369 20 4.78904C20 4.93438 20.1178 5.05219 20.2632 5.05219V4.52588ZM23.3406 6.41733C23.4381 6.52504 23.6046 6.53327 23.7123 6.43569C23.82 6.33812 23.8282 6.17169 23.7306 6.06398L23.3406 6.41733ZM24.4104 7.03833C24.343 6.90954 24.184 6.85972 24.0552 6.92709C23.9264 6.99446 23.8767 7.15346 23.944 7.28225L24.4104 7.03833ZM24.3223 8.33006C24.3527 8.47217 24.4926 8.56272 24.6347 8.5323C24.7768 8.50188 24.8674 8.36201 24.837 8.21991L24.3223 8.33006ZM20.2632 5.05219C21.4836 5.05219 22.5807 5.57848 23.3406 6.41733L23.7306 6.06398C22.8752 5.11964 21.6383 4.52588 20.2632 4.52588V5.05219ZM23.944 7.28225C24.1147 7.60848 24.2431 7.96012 24.3223 8.33006L24.837 8.21991C24.7477 7.80267 24.6027 7.40609 24.4104 7.03833L23.944 7.28225Z" fill="white"/>
<path d="M27.895 10.1841H12.6318C12.4865 10.1841 12.3687 10.3019 12.3687 10.4472V14.1315C12.3687 14.2768 12.4865 14.3946 12.6318 14.3946H27.895C28.0403 14.3946 28.1581 14.2768 28.1581 14.1315V10.4472C28.1581 10.3019 28.0403 10.1841 27.895 10.1841Z" fill="#FF8A00"/>
<path d="M2.89453 15.447C2.89453 13.7029 4.30837 12.2891 6.05243 12.2891H33.9472C35.6911 12.2891 37.1051 13.7029 37.1051 15.447V33.868C37.1051 39.3909 32.628 43.868 27.1051 43.868H12.8945C7.37169 43.868 2.89453 39.3909 2.89453 33.868V15.447Z" fill="#0076DE"/>
<mask id="mask1_2404_14168" style="mask-type:alpha" maskUnits="userSpaceOnUse" x="2" y="12" width="36" height="32">
<path d="M2.89453 15.447C2.89453 13.7029 4.30837 12.2891 6.05243 12.2891H33.9472C35.6911 12.2891 37.1051 13.7029 37.1051 15.447V33.868C37.1051 39.3909 32.628 43.868 27.1051 43.868H12.8945C7.37169 43.868 2.89453 39.3909 2.89453 33.868V15.447Z" fill="white"/>
</mask>
<g mask="url(#mask1_2404_14168)">
<path d="M37.6313 11.7627H2.36816V44.3943H37.6313V11.7627Z" fill="#FF8A00"/>
</g>
<path d="M25.2631 35.4473H14.7368C14.4461 35.4473 14.2104 35.6829 14.2104 35.9736C14.2104 36.2643 14.4461 36.4999 14.7368 36.4999H25.2631C25.5538 36.4999 25.7894 36.2643 25.7894 35.9736C25.7894 35.6829 25.5538 35.4473 25.2631 35.4473Z" fill="black" fill-opacity="0.8"/>
<path d="M32.6317 21.7627H7.36855C6.7872 21.7627 6.31592 22.234 6.31592 22.8153V31.7627C6.31592 32.344 6.7872 32.8153 7.36855 32.8153H32.6317C33.2131 32.8153 33.6843 32.344 33.6843 31.7627V22.8153C33.6843 22.234 33.2131 21.7627 32.6317 21.7627Z" fill="black" fill-opacity="0.8"/>
<path d="M15.7898 27.2891H14.2109C13.9202 27.2891 13.6846 27.5247 13.6846 27.8154V29.6575C13.6846 29.9482 13.9202 30.1838 14.2109 30.1838H15.7898C16.0805 30.1838 16.3161 29.9482 16.3161 29.6575V27.8154C16.3161 27.5247 16.0805 27.2891 15.7898 27.2891Z" fill="#8BDDFF"/>
<path d="M25.7898 27.2891H24.2109C23.9202 27.2891 23.6846 27.5247 23.6846 27.8154V29.6575C23.6846 29.9482 23.9202 30.1838 24.2109 30.1838H25.7898C26.0805 30.1838 26.3161 29.9482 26.3161 29.6575V27.8154C26.3161 27.5247 26.0805 27.2891 25.7898 27.2891Z" fill="#8BDDFF"/>
<path fill-rule="evenodd" clip-rule="evenodd" d="M11.8423 21.7627H13.9476L9.47392 32.8153H7.36865L11.8423 21.7627Z" fill="white" fill-opacity="0.4"/>
<defs>
<filter id="filter0_di_2404_14168" x="11.4444" y="0.575792" width="17.6375" height="15.2688" filterUnits="userSpaceOnUse" color-interpolation-filters="sRGB">
<feFlood flood-opacity="0" result="BackgroundImageFix"/>
<feColorMatrix in="SourceAlpha" type="matrix" values="0 0 0 0 0 0 0 0 0 0 0 0 0 0 0 0 0 0 127 0" result="hardAlpha"/>
<feOffset/>
<feGaussianBlur stdDeviation="1.77778"/>
<feColorMatrix type="matrix" values="0 0 0 0 1 0 0 0 0 1 0 0 0 0 1 0 0 0 0.5 0"/>
<feBlend mode="normal" in2="BackgroundImageFix" result="effect1_dropShadow_2404_14168"/>
<feBlend mode="normal" in="SourceGraphic" in2="effect1_dropShadow_2404_14168" result="shape"/>
<feColorMatrix in="SourceAlpha" type="matrix" values="0 0 0 0 0 0 0 0 0 0 0 0 0 0 0 0 0 0 127 0" result="hardAlpha"/>
<feOffset/>
<feGaussianBlur stdDeviation="0.888889"/>
<feComposite in2="hardAlpha" operator="arithmetic" k2="-1" k3="1"/>
<feColorMatrix type="matrix" values="0 0 0 0 1 0 0 0 0 1 0 0 0 0 1 0 0 0 0.5 0"/>
<feBlend mode="normal" in2="shape" result="effect2_innerShadow_2404_14168"/>
</filter>
</defs>
</svg>
